<?xml version="1.0" standalone="no"?>
<!DOCTYPE svg PUBLIC "-//W3C//DTD SVG 20010904//EN"
 "http://www.w3.org/TR/2001/REC-SVG-20010904/DTD/svg10.dtd">
<svg version="1.0" xmlns="http://www.w3.org/2000/svg"
 width="700.000000pt" height="700.000000pt" viewBox="0 0 700.000000 700.000000"
 preserveAspectRatio="xMidYMid meet">
<metadata>
Created by potrace 1.14, written by Peter Selinger 2001-2017
</metadata>
<g transform="translate(0.000000,700.000000) scale(0.100000,-0.100000)"
fill="#000000" stroke="none">
<path d="M3308 6985 c-1 -1 -46 -6 -98 -9 -52 -4 -102 -9 -110 -11 -8 -2 -41
-6 -73 -10 -50 -5 -137 -20 -242 -40 -124 -24 -411 -106 -490 -140 -16 -7 -73
-29 -125 -50 -245 -98 -532 -261 -769 -438 -132 -99 -236 -191 -381 -337 -422
-424 -726 -948 -884 -1525 -57 -207 -97 -429 -113 -625 -15 -179 -7 -634 12
-710 2 -8 6 -42 10 -75 3 -33 10 -78 15 -100 5 -22 11 -58 14 -80 25 -164 133
-519 207 -683 16 -34 29 -65 29 -68 0 -13 130 -266 185 -358 254 -432 636
-839 1046 -1114 312 -209 634 -361 989 -465 67 -20 252 -64 300 -72 19 -3 46
-8 60 -10 56 -12 77 -15 115 -20 22 -3 56 -7 75 -10 207 -27 636 -28 839 0 14
2 49 6 76 10 88 11 345 65 437 91 362 101 701 258 1010 466 217 146 330 239
524 433 368 365 643 799 822 1295 67 186 135 457 162 650 6 41 12 86 15 100
12 79 19 220 20 410 0 263 -7 352 -45 585 -26 159 -25 152 -65 306 -156 603
-466 1142 -915 1589 -124 124 -174 169 -297 267 -83 66 -306 223 -317 223 -3
0 -31 17 -63 38 -75 49 -311 169 -438 222 -163 69 -464 163 -595 186 -14 3
-41 9 -60 14 -53 13 -163 30 -290 45 -30 3 -73 8 -95 11 -44 6 -491 14 -497 9z
m-27 -1849 c96 -4 190 -8 209 -10 19 -2 80 -7 135 -11 55 -4 107 -9 115 -10 8
-2 44 -6 80 -10 92 -9 347 -46 425 -60 147 -28 293 -59 378 -81 56 -14 109
-27 117 -29 168 -39 443 -132 710 -241 36 -15 290 -141 425 -212 17 -9 55 -41
86 -71 66 -67 93 -132 93 -231 0 -122 -78 -241 -192 -293 -71 -33 -199 -31
-267 4 -27 15 -115 60 -195 102 -122 63 -209 103 -345 157 -11 4 -36 13 -55
20 -19 7 -44 16 -55 21 -40 17 -243 79 -370 113 -196 53 -464 105 -695 136
-134 18 -144 19 -205 25 -33 4 -73 8 -90 10 -233 27 -997 27 -1167 0 -13 -2
-58 -6 -101 -10 -43 -4 -88 -8 -100 -10 -23 -4 -57 -9 -167 -25 -113 -17 -133
-21 -245 -46 -60 -14 -119 -27 -129 -29 -10 -3 -60 -16 -110 -31 -142 -41
-235 -34 -328 25 -130 82 -183 262 -120 403 28 64 95 133 156 161 121 57 553
150 861 187 50 6 104 12 120 15 17 2 64 7 105 10 41 3 95 8 120 10 25 2 119 7
210 10 91 4 166 8 167 9 3 3 260 -2 424 -8z m54 -1209 c11 -2 55 -8 97 -12 43
-3 92 -8 110 -11 18 -2 57 -6 86 -10 29 -3 63 -7 75 -10 11 -2 37 -6 57 -9 20
-3 47 -8 60 -10 14 -3 50 -9 80 -15 82 -14 277 -57 340 -74 30 -8 89 -24 131
-35 283 -76 676 -238 943 -389 142 -80 199 -128 227 -190 96 -214 -108 -443
-330 -371 -20 6 -78 36 -129 66 -95 56 -392 203 -410 203 -5 0 -34 11 -64 24
-177 78 -590 193 -868 240 -138 24 -171 28 -285 41 -27 3 -66 7 -85 10 -151
18 -552 24 -745 11 -199 -13 -229 -15 -370 -36 -171 -26 -282 -49 -489 -102
-173 -44 -213 -45 -285 -9 -61 32 -98 68 -125 124 -31 66 -37 114 -21 182 25
109 92 173 220 210 76 22 193 52 225 59 14 3 77 16 140 29 125 27 140 30 310
52 63 9 129 17 145 20 17 2 77 7 135 11 58 3 107 8 109 10 6 5 692 -3 716 -9z
m-105 -1131 c63 -4 129 -8 145 -10 17 -2 62 -7 100 -10 39 -4 95 -11 125 -16
30 -5 73 -12 95 -15 376 -55 838 -214 1200 -413 152 -83 187 -112 215 -173 67
-148 -44 -313 -205 -305 -49 3 -99 23 -180 74 -58 37 -234 123 -355 175 -130
55 -317 116 -475 155 -123 31 -134 33 -245 52 -36 6 -75 13 -86 15 -12 2 -48
7 -80 10 -33 4 -67 9 -76 11 -137 24 -765 24 -920 -1 -30 -5 -135 -17 -173
-20 -17 -1 -44 -5 -60 -9 -17 -3 -48 -8 -70 -11 -54 -6 -300 -52 -400 -74 -94
-21 -140 -19 -195 9 -84 43 -126 119 -116 212 10 100 75 173 171 193 22 5 42
9 45 10 18 5 69 16 90 20 14 3 59 11 100 20 41 8 89 17 105 19 127 21 228 36
270 41 28 3 60 8 71 10 12 3 55 8 95 11 41 3 90 8 109 10 19 1 103 6 185 10
83 3 151 7 152 8 4 3 262 -2 363 -8z"/>
</g>
</svg>
